<svg viewBox="0 0 24 24" xmlns="http://www.w3.org/2000/svg"><path d="M12 0C8.74 0 8.333.015 7.053.072 5.775.132 4.905.333 4.117.63c-.794.306-1.459.717-2.126 1.384S.935 3.323.63 4.117C.333 4.905.131 5.775.072 7.053.012 8.333 0 8.74 0 12s.015 3.667.072 4.947c.06 1.277.261 2.148.558 2.913.306.788.717 1.459 1.384 2.126.667.666 1.336 1.079 2.126 1.384.766.296 1.636.499 2.913.558C8.333 23.988 8.74 24 12 24s3.667-.015 4.947-.072c1.277-.059 2.148-.262 2.913-.558.788-.306 1.459-.718 2.126-1.384.666-.667 1.079-1.335 1.384-2.126.296-.765.499-1.636.558-2.913.06-1.28.072-1.687.072-4.947s-.015-3.667-.072-4.947c-.059-1.277-.262-2.148-.558-2.913-.306-.788-.717-1.459-1.384-2.126C21.319 1.347 20.651.935 19.863.63c-.765-.297-1.636-.499-2.913-.558C15.667.012 15.26 0 12 0zm0 2.16c3.203 0 3.585.009 4.849.070 1.171.053 1.805.249 2.227.415.562.217.96.477 1.382.896.419.42.679.819.896 1.381.164.422.361 1.057.413 2.227.061 1.264.07 1.645.07 4.849 0 3.203-.009 3.585-.070 4.849-.053 1.171-.249 1.805-.415 2.227-.217.562-.477.96-.896 1.382-.42.419-.819.679-1.381.896-.422.164-1.056.361-2.227.413-1.264.061-1.645.07-4.849.07-3.203 0-3.585-.009-4.849-.070-1.171-.053-1.805-.249-2.227-.415-.562-.217-.96-.477-1.382-.896-.419-.42-.679-.819-.896-1.381-.164-.422-.361-1.057-.413-2.227-.061-1.264-.07-1.645-.07-4.849 0-3.203.009-3.585.070-4.849.053-1.171.249-1.805.415-2.227.217-.562.477-.96.896-1.382.42-.419.819-.679 1.381-.896.422-.164 1.056-.361 2.227-.413 1.264-.061 1.645-.07 4.849-.07zM5.838 12a6.162 6.162 0 1 1 12.324 0 6.162 6.162 0 0 1-12.324 0zM12 16a4 4 0 1 1 0-8 4 4 0 0 1 0 8zm4.965-10.322a1.44 1.44 0 1 1 2.881.001 1.44 1.44 0 0 1-2.881-.001z"/></svg>